<svg width="402" height="37" viewBox="0 0 402 37" fill="none" xmlns="http://www.w3.org/2000/svg">
<path d="M0.548438 35V1.4H13.2684L24.4284 19.56H25.4284V1.4H36.2284V35H23.7884L12.3484 16.84H11.3484V35H0.548438ZM39.0328 35V1.4H69.3128V10.28H50.1128V14.56H68.5928V21.84H50.1128V26.12H69.3128V35H39.0328ZM78.0466 35L71.5266 1.4H82.7666L86.3666 23.16H87.3266L92.1266 1.4H100.927L105.727 23.16H106.687L110.287 1.4H121.527L115.007 35H100.047L97.0066 18.84H96.0466L93.0066 35H78.0466ZM161.742 35L160.262 30.56H145.862L144.382 35H132.942L145.302 1.4H160.822L173.182 35H161.742ZM148.582 22.36H157.542L154.022 11.8H152.102L148.582 22.36ZM209.703 35H198.823L194.263 26.32H185.863V35H174.783V1.4H194.023C203.343 1.4 208.583 5.4 208.583 14.24C208.583 18.76 206.543 21.96 203.703 23.96L209.703 35ZM185.863 10.6V18.04H193.263C196.063 18.04 197.503 16.68 197.503 14.32C197.503 11.96 196.063 10.6 193.263 10.6H185.863ZM246.828 35H235.948L231.388 26.32H222.988V35H211.908V1.4H231.148C240.468 1.4 245.708 5.4 245.708 14.24C245.708 18.76 243.668 21.96 240.828 23.96L246.828 35ZM222.988 10.6V18.04H230.388C233.188 18.04 234.628 16.68 234.628 14.32C234.628 11.96 233.188 10.6 230.388 10.6H222.988ZM249.033 35V1.4H260.113V35H249.033ZM274.068 35L261.708 1.4H273.148L281.228 24.6H282.428L290.508 1.4H301.948L289.588 35H274.068ZM323.133 35L321.653 30.56H307.253L305.773 35H294.333L306.693 1.4H322.213L334.573 35H323.133ZM309.973 22.36H318.933L315.413 11.8H313.493L309.973 22.36ZM336.173 35V1.4H347.253V25.76H365.173V35H336.173ZM383.955 36.12C372.355 36.08 366.875 32.48 367.155 23.76H377.115C377.235 26.04 379.155 27.44 383.955 27.48C388.195 27.52 390.155 26.32 390.155 24.76C390.155 23.68 389.555 22.56 386.275 22.08L381.955 21.4C375.595 20.36 367.955 19.6 367.955 11C367.955 4.36 373.355 0.279999 384.035 0.279999C393.675 0.279999 400.395 2.96 400.195 12.56H390.315C389.915 10.32 388.035 8.92 383.795 8.92C380.115 8.92 378.595 10.04 378.595 11.56C378.595 12.52 379.195 13.68 381.755 14.08L385.315 14.68C391.995 15.8 401.155 16 401.155 25.2C401.155 32.52 395.475 36.16 383.955 36.12Z" fill="black"/>
</svg>
