<svg width="344" height="37" viewBox="0 0 344 37" fill="none" xmlns="http://www.w3.org/2000/svg">
<path d="M35.6822 1.4V10.64H23.6022V35H12.5222V10.64H0.442188V1.4H35.6822ZM54.9416 36.12C43.3816 36.12 35.9016 28.96 35.9016 18.2C35.9016 7.44 43.3816 0.279999 54.9416 0.279999C66.5016 0.279999 73.9816 7.44 73.9816 18.2C73.9816 28.96 66.5016 36.12 54.9416 36.12ZM54.9416 26.56C59.3416 26.56 62.9816 23.52 62.9816 18.2C62.9816 12.88 59.3416 9.84 54.9416 9.84C50.5416 9.84 46.9016 12.88 46.9016 18.2C46.9016 23.52 50.5416 26.56 54.9416 26.56ZM76.2047 35V1.4H95.2847C104.445 1.4 109.885 5.48 109.885 14.52C109.885 23.56 104.445 27.64 95.3247 27.64H87.2847V35H76.2047ZM87.2847 18.44H94.3247C97.0047 18.44 98.7247 17.12 98.7247 14.52C98.7247 11.92 97.0047 10.6 94.3647 10.6H87.2847V18.44ZM138.705 36.12C127.105 36.08 121.625 32.48 121.905 23.76H131.865C131.985 26.04 133.905 27.44 138.705 27.48C142.945 27.52 144.905 26.32 144.905 24.76C144.905 23.68 144.305 22.56 141.025 22.08L136.705 21.4C130.345 20.36 122.705 19.6 122.705 11C122.705 4.36 128.105 0.279999 138.785 0.279999C148.425 0.279999 155.145 2.96 154.945 12.56H145.065C144.665 10.32 142.785 8.92 138.545 8.92C134.865 8.92 133.345 10.04 133.345 11.56C133.345 12.52 133.945 13.68 136.505 14.08L140.065 14.68C146.745 15.8 155.905 16 155.905 25.2C155.905 32.52 150.225 36.16 138.705 36.12ZM158.002 35V1.4H188.282V10.28H169.082V14.56H187.562V21.84H169.082V26.12H188.282V35H158.002ZM191.095 35V1.4H202.175V25.76H220.095V35H191.095ZM222.877 35V1.4H233.957V25.76H251.877V35H222.877ZM254.658 35V1.4H265.738V35H254.658ZM268.533 35V1.4H281.253L292.413 19.56H293.413V1.4H304.213V35H291.773L280.333 16.84H279.333V35H268.533ZM343.177 16.44V35H337.257L337.097 30.56C334.777 33.76 330.577 36.12 324.657 36.12C314.337 36.12 306.417 28.96 306.417 18.2C306.417 7.44 313.937 0.279999 325.617 0.279999C333.577 0.279999 341.697 4.12 343.017 13.16H332.017C331.337 11.48 329.137 9.84 325.857 9.84C320.897 9.84 317.417 13.12 317.417 18.2C317.417 23.28 320.977 26.56 325.537 26.56C327.177 26.56 331.377 26.12 332.497 22.2H325.097V16.44H343.177Z" fill="black"/>
</svg>
