<svg width="37" height="33" viewBox="0 0 37 33" fill="none" xmlns="http://www.w3.org/2000/svg">
<path d="M20.3062 1.65625C19.975 0.96875 19.275 0.53125 18.5063 0.53125C17.7375 0.53125 17.0437 0.96875 16.7062 1.65625L12.6875 9.925L3.7125 11.25C2.9625 11.3625 2.3375 11.8875 2.10625 12.6062C1.875 13.325 2.0625 14.1187 2.6 14.65L9.1125 21.0938L7.575 30.2C7.45 30.95 7.7625 31.7125 8.38125 32.1562C9 32.6 9.81875 32.6562 10.4937 32.3L18.5125 28.0187L26.5312 32.3C27.2062 32.6562 28.025 32.6063 28.6437 32.1562C29.2625 31.7062 29.575 30.95 29.45 30.2L27.9062 21.0938L34.4188 14.65C34.9562 14.1187 35.15 13.325 34.9125 12.6062C34.675 11.8875 34.0563 11.3625 33.3063 11.25L24.325 9.925L20.3062 1.65625Z" fill="white"/>
</svg>
