<svg width="34" height="33" viewBox="0 0 34 33" fill="none" xmlns="http://www.w3.org/2000/svg">
<path d="M18.3062 1.65625C17.975 0.96875 17.275 0.53125 16.5063 0.53125C15.7375 0.53125 15.0437 0.96875 14.7062 1.65625L10.6875 9.925L1.7125 11.25C0.9625 11.3625 0.3375 11.8875 0.10625 12.6062C-0.125 13.325 0.0624998 14.1187 0.6 14.65L7.1125 21.0938L5.575 30.2C5.45 30.95 5.7625 31.7125 6.38125 32.1562C7 32.6 7.81875 32.6562 8.49375 32.3L16.5125 28.0187L24.5312 32.3C25.2062 32.6562 26.025 32.6063 26.6437 32.1562C27.2625 31.7062 27.575 30.95 27.45 30.2L25.9062 21.0938L32.4188 14.65C32.9562 14.1187 33.15 13.325 32.9125 12.6062C32.675 11.8875 32.0563 11.3625 31.3063 11.25L22.325 9.925L18.3062 1.65625Z" fill="#2C3E50"/>
</svg>
