<svg width="22" height="22" viewBox="0 0 22 22" fill="none" xmlns="http://www.w3.org/2000/svg">
<path d="M20.7958 19.2041L16.3436 14.75C17.6785 13.0104 18.3018 10.8282 18.0869 8.64607C17.872 6.4639 16.8352 4.44516 15.1866 2.99937C13.538 1.55357 11.4013 0.788988 9.20972 0.860713C7.01817 0.932437 4.93595 1.8351 3.38546 3.38559C1.83497 4.93608 0.932307 7.0183 0.860583 9.20985C0.788858 11.4014 1.55344 13.5382 2.99924 15.1867C4.44503 16.8353 6.46377 17.8722 8.64594 18.087C10.8281 18.3019 13.0103 17.6787 14.7499 16.3438L19.2058 20.8006C19.3105 20.9053 19.4347 20.9883 19.5714 21.0449C19.7081 21.1016 19.8547 21.1307 20.0027 21.1307C20.1507 21.1307 20.2972 21.1016 20.434 21.0449C20.5707 20.9883 20.6949 20.9053 20.7996 20.8006C20.9042 20.696 20.9872 20.5717 21.0439 20.435C21.1005 20.2983 21.1296 20.1517 21.1296 20.0037C21.1296 19.8558 21.1005 19.7092 21.0439 19.5725C20.9872 19.4358 20.9042 19.3115 20.7996 19.2069L20.7958 19.2041ZM3.12487 9.5C3.12487 8.23915 3.49876 7.0066 4.19925 5.95824C4.89975 4.90988 5.89539 4.09278 7.06026 3.61027C8.22514 3.12776 9.50694 3.00151 10.7436 3.2475C11.9802 3.49348 13.1161 4.10064 14.0077 4.9922C14.8992 5.88376 15.5064 7.01967 15.7524 8.2563C15.9984 9.49293 15.8721 10.7747 15.3896 11.9396C14.9071 13.1045 14.09 14.1001 13.0416 14.8006C11.9933 15.5011 10.7607 15.875 9.49987 15.875C7.80965 15.8733 6.18915 15.2011 4.99398 14.0059C3.79882 12.8107 3.12661 11.1902 3.12487 9.5Z" fill="black" fill-opacity="0.4"/>
</svg>
