<svg width="538" height="75" viewBox="0 0 538 75" fill="none" xmlns="http://www.w3.org/2000/svg">
<path d="M14.5 29.9333C4.83333 29.9 0.266667 26.9 0.5 19.6333H8.8C8.9 21.5333 10.5 22.7 14.5 22.7333C18.0333 22.7667 19.6667 21.7667 19.6667 20.4667C19.6667 19.5667 19.1667 18.6333 16.4333 18.2333L12.8333 17.6667C7.53333 16.8 1.16667 16.1667 1.16667 9C1.16667 3.46667 5.66667 0.0666656 14.5667 0.0666656C22.6 0.0666656 28.2 2.3 28.0333 10.3H19.8C19.4667 8.43333 17.9 7.26667 14.3667 7.26667C11.3 7.26667 10.0333 8.2 10.0333 9.46667C10.0333 10.2667 10.5333 11.2333 12.6667 11.5667L15.6333 12.0667C21.2 13 28.8333 13.1667 28.8333 20.8333C28.8333 26.9333 24.1 29.9667 14.5 29.9333ZM58.7651 1V8.7H48.6984V29H39.4651V8.7H29.3984V1H58.7651ZM78.2682 29L77.0349 25.3H65.0349L63.8016 29H54.2682L64.5682 1H77.5016L87.8016 29H78.2682ZM67.3016 18.4667H74.7682L71.8349 9.66667H70.2349L67.3016 18.4667ZM113.422 1L101.956 20.3V29H92.7224V20.2667L81.2891 1H90.9891L96.9891 11.5333H97.7224L103.722 1H113.422ZM137.424 29.9333C127.791 29.9333 122.924 25.8333 122.924 16.8V1H132.224V16.5667C132.224 20.0333 133.758 22.2 137.424 22.2C141.091 22.2 142.691 20.0333 142.691 16.5667V1H151.924V16.7333C151.924 25.8333 147.058 29.9333 137.424 29.9333ZM154.253 29V1H170.153C177.786 1 182.319 4.4 182.319 11.9333C182.319 19.4667 177.786 22.8667 170.186 22.8667H163.486V29H154.253ZM163.486 15.2H169.353C171.586 15.2 173.019 14.1 173.019 11.9333C173.019 9.76667 171.586 8.66667 169.386 8.66667H163.486V15.2ZM212.867 1V8.7H202.8V29H193.567V8.7H183.5V1H212.867ZM228.916 29.9333C219.283 29.9333 213.049 23.9667 213.049 15C213.049 6.03333 219.283 0.0666656 228.916 0.0666656C238.549 0.0666656 244.783 6.03333 244.783 15C244.783 23.9667 238.549 29.9333 228.916 29.9333ZM228.916 21.9667C232.583 21.9667 235.616 19.4333 235.616 15C235.616 10.5667 232.583 8.03333 228.916 8.03333C225.249 8.03333 222.216 10.5667 222.216 15C222.216 19.4333 225.249 21.9667 228.916 21.9667ZM269.374 1C280.774 1 284.774 6.93333 284.774 15C284.774 23.0333 280.774 29 269.374 29H255.307V1H269.374ZM269.374 21.2667C272.974 21.2667 275.507 19.4667 275.507 15C275.507 10.5 272.974 8.73333 269.374 8.73333H264.574V21.2667H269.374ZM307.135 29L305.902 25.3H293.902L292.669 29H283.135L293.435 1H306.369L316.669 29H307.135ZM296.169 18.4667H303.635L300.702 9.66667H299.102L296.169 18.4667ZM341.539 1V8.7H331.472V29H322.239V8.7H312.172V1H341.539ZM343.706 29V1H368.939V8.4H352.939V11.9667H368.339V18.0333H352.939V21.6H368.939V29H343.706ZM402.956 29L401.722 25.3H389.722L388.489 29H378.956L389.256 1H402.189L412.489 29H402.956ZM391.989 18.4667H399.456L396.522 9.66667H394.922L391.989 18.4667ZM438.29 14.5667C440.99 15.9333 442.623 17.9 442.623 21.1C442.623 25.6 439.456 29 430.69 29H413.823V1H431.156C439.623 1 441.89 4.73333 441.89 8.43333C441.89 11.6 440.256 12.9667 438.29 14.0333V14.5667ZM430.19 8.06667H423.056V12.2667H430.19C432.356 12.2667 433.056 11.2 433.056 10.2C433.056 9.13333 432.356 8.06667 430.19 8.06667ZM430.39 21.9333C432.556 21.9333 433.29 20.6 433.29 19.5667C433.29 18.5 432.556 17.3 430.39 17.3H423.056V21.9333H430.39ZM459.619 29.9333C449.986 29.9333 443.753 23.9667 443.753 15C443.753 6.03333 449.986 0.0666656 459.619 0.0666656C469.253 0.0666656 475.486 6.03333 475.486 15C475.486 23.9667 469.253 29.9333 459.619 29.9333ZM459.619 21.9667C463.286 21.9667 466.319 19.4333 466.319 15C466.319 10.5667 463.286 8.03333 459.619 8.03333C455.953 8.03333 452.919 10.5667 452.919 15C452.919 19.4333 455.953 21.9667 459.619 21.9667ZM491.839 29.9333C482.205 29.9333 477.339 25.8333 477.339 16.8V1H486.639V16.5667C486.639 20.0333 488.172 22.2 491.839 22.2C495.505 22.2 497.105 20.0333 497.105 16.5667V1H506.339V16.7333C506.339 25.8333 501.472 29.9333 491.839 29.9333ZM537.867 1V8.7H527.8V29H518.567V8.7H508.5V1H537.867ZM16.5333 74.9333C6.9 74.9333 0.666667 68.9667 0.666667 60C0.666667 51.0333 6.9 45.0667 16.5333 45.0667C26.1667 45.0667 32.4 51.0333 32.4 60C32.4 68.9667 26.1667 74.9333 16.5333 74.9333ZM16.5333 66.9667C20.2 66.9667 23.2333 64.4333 23.2333 60C23.2333 55.5667 20.2 53.0333 16.5333 53.0333C12.8667 53.0333 9.83333 55.5667 9.83333 60C9.83333 64.4333 12.8667 66.9667 16.5333 66.9667ZM48.7526 74.9333C39.1193 74.9333 34.2526 70.8333 34.2526 61.8V46H43.5526V61.5667C43.5526 65.0333 45.0859 67.2 48.7526 67.2C52.4193 67.2 54.0193 65.0333 54.0193 61.5667V46H63.2526V61.7333C63.2526 70.8333 58.3859 74.9333 48.7526 74.9333ZM94.6807 74H85.6141L81.8141 66.7667H74.8141V74H65.5807V46H81.6141C89.3807 46 93.7474 49.3333 93.7474 56.7C93.7474 60.4667 92.0474 63.1333 89.6807 64.8L94.6807 74ZM74.8141 53.6667V59.8667H80.9807C83.3141 59.8667 84.5141 58.7333 84.5141 56.7667C84.5141 54.8 83.3141 53.6667 80.9807 53.6667H74.8141ZM105.19 74V46H114.423V66.3H129.357V74H105.19ZM154.323 74L153.09 70.3H141.09L139.856 74H130.323L140.623 46H153.556L163.856 74H154.323ZM143.356 63.4667H150.823L147.89 54.6667H146.29L143.356 63.4667ZM188.726 46V53.7H178.659V74H169.426V53.7H159.359V46H188.726ZM190.893 74V46H216.127V53.4H200.127V56.9667H215.527V63.0333H200.127V66.6H216.127V74H190.893ZM231.805 74.9333C222.138 74.9 217.571 71.9 217.805 64.6333H226.105C226.205 66.5333 227.805 67.7 231.805 67.7333C235.338 67.7667 236.971 66.7667 236.971 65.4667C236.971 64.5667 236.471 63.6333 233.738 63.2333L230.138 62.6667C224.838 61.8 218.471 61.1667 218.471 54C218.471 48.4667 222.971 45.0667 231.871 45.0667C239.905 45.0667 245.505 47.3 245.338 55.3H237.105C236.771 53.4333 235.205 52.2667 231.671 52.2667C228.605 52.2667 227.338 53.2 227.338 54.4667C227.338 55.2667 227.838 56.2333 229.971 56.5667L232.938 57.0667C238.505 58 246.138 58.1667 246.138 65.8333C246.138 71.9333 241.405 74.9667 231.805 74.9333ZM276.07 46V53.7H266.003V74H256.77V53.7H246.703V46H276.07ZM302.276 74.9333C292.642 74.9333 286.409 68.9667 286.409 60C286.409 51.0333 292.642 45.0667 302.276 45.0667C311.909 45.0667 318.142 51.0333 318.142 60C318.142 68.9667 311.909 74.9333 302.276 74.9333ZM302.276 66.9667C305.942 66.9667 308.976 64.4333 308.976 60C308.976 55.5667 305.942 53.0333 302.276 53.0333C298.609 53.0333 295.576 55.5667 295.576 60C295.576 64.4333 298.609 66.9667 302.276 66.9667ZM319.995 74V46H345.161V53.7H329.228V57.5H344.461V64.1667H329.228V74H319.995ZM347.495 74V46H372.661V53.7H356.728V57.5H371.961V64.1667H356.728V74H347.495ZM374.995 74V46H400.228V53.4H384.228V56.9667H399.628V63.0333H384.228V66.6H400.228V74H374.995ZM431.673 74H422.606L418.806 66.7667H411.806V74H402.573V46H418.606C426.373 46 430.74 49.3333 430.74 56.7C430.74 60.4667 429.04 63.1333 426.673 64.8L431.673 74ZM411.806 53.6667V59.8667H417.973C420.306 59.8667 421.506 58.7333 421.506 56.7667C421.506 54.8 420.306 53.6667 417.973 53.6667H411.806ZM445.828 74.9333C436.161 74.9 431.595 71.9 431.828 64.6333H440.128C440.228 66.5333 441.828 67.7 445.828 67.7333C449.361 67.7667 450.995 66.7667 450.995 65.4667C450.995 64.5667 450.495 63.6333 447.761 63.2333L444.161 62.6667C438.861 61.8 432.495 61.1667 432.495 54C432.495 48.4667 436.995 45.0667 445.895 45.0667C453.928 45.0667 459.528 47.3 459.361 55.3H451.128C450.795 53.4333 449.228 52.2667 445.695 52.2667C442.628 52.2667 441.361 53.2 441.361 54.4667C441.361 55.2667 441.861 56.2333 443.995 56.5667L446.961 57.0667C452.528 58 460.161 58.1667 460.161 65.8333C460.161 71.9333 455.428 74.9667 445.828 74.9333Z" fill="white"/>
</svg>
