<svg width="258" height="30" viewBox="0 0 258 30" fill="none" xmlns="http://www.w3.org/2000/svg">
<path d="M32.1333 1L20.6667 20.3V29H11.4333V20.2667L0 1H9.7L15.7 11.5333H16.4333L22.4333 1H32.1333ZM45.674 29.9333C36.0406 29.9333 29.8073 23.9667 29.8073 15C29.8073 6.03333 36.0406 0.0666656 45.674 0.0666656C55.3073 0.0666656 61.5406 6.03333 61.5406 15C61.5406 23.9667 55.3073 29.9333 45.674 29.9333ZM45.674 21.9667C49.3406 21.9667 52.374 19.4333 52.374 15C52.374 10.5667 49.3406 8.03333 45.674 8.03333C42.0073 8.03333 38.974 10.5667 38.974 15C38.974 19.4333 42.0073 21.9667 45.674 21.9667ZM77.8932 29.9333C68.2599 29.9333 63.3932 25.8333 63.3932 16.8V1H72.6932V16.5667C72.6932 20.0333 74.2266 22.2 77.8932 22.2C81.5599 22.2 83.1599 20.0333 83.1599 16.5667V1H92.3932V16.7333C92.3932 25.8333 87.5266 29.9333 77.8932 29.9333ZM123.821 29H114.755L110.955 21.7667H103.955V29H94.7214V1H110.755C118.521 1 122.888 4.33333 122.888 11.7C122.888 15.4667 121.188 18.1333 118.821 19.8L123.821 29ZM103.955 8.66667V14.8667H110.121C112.455 14.8667 113.655 13.7333 113.655 11.7667C113.655 9.8 112.455 8.66667 110.121 8.66667H103.955ZM149.564 29.9333C140.131 29.9333 133.831 23.9667 133.831 15C133.831 6.03333 140.131 0.0666656 149.564 0.0666656C156.397 0.0666656 163.397 3.06667 164.331 12.5333H155.531C154.764 9.46667 152.597 8.03333 149.564 8.03333C145.897 8.03333 142.997 10.7667 142.997 15C142.997 19.2333 145.897 21.9667 149.564 21.9667C152.597 21.9667 154.764 20.5333 155.531 17.4H164.331C163.397 26.9333 156.464 29.9333 149.564 29.9333ZM187.174 29L185.941 25.3H173.941L172.708 29H163.174L173.474 1H186.408L196.708 29H187.174ZM176.208 18.4667H183.674L180.741 9.66667H179.141L176.208 18.4667ZM227.142 29H218.075L214.275 21.7667H207.275V29H198.042V1H214.075C221.842 1 226.208 4.33333 226.208 11.7C226.208 15.4667 224.508 18.1333 222.142 19.8L227.142 29ZM207.275 8.66667V14.8667H213.442C215.775 14.8667 216.975 13.7333 216.975 11.7667C216.975 9.8 215.775 8.66667 213.442 8.66667H207.275ZM257.515 1V8.7H247.448V29H238.215V8.7H228.148V1H257.515Z" fill="black"/>
</svg>
